<svg width="163" height="163" viewBox="0 0 163 163" fill="none" xmlns="http://www.w3.org/2000/svg">
<path d="M112.846 68.9615C112.846 56.8802 108.552 46.5458 99.9648 37.9582C91.3773 29.3707 81.0429 25.0769 68.9615 25.0769C56.8802 25.0769 46.5458 29.3707 37.9582 37.9582C29.3707 46.5458 25.0769 56.8802 25.0769 68.9615C25.0769 81.0429 29.3707 91.3773 37.9582 99.9648C46.5458 108.552 56.8802 112.846 68.9615 112.846C81.0429 112.846 91.3773 108.552 99.9648 99.9648C108.552 91.3773 112.846 81.0429 112.846 68.9615ZM163 150.462C163 153.857 161.759 156.796 159.278 159.278C156.796 161.759 153.857 163 150.462 163C146.935 163 143.996 161.759 141.645 159.278L108.046 125.776C96.3568 133.874 83.3285 137.923 68.9615 137.923C59.623 137.923 50.6926 136.111 42.1704 132.486C33.6481 128.862 26.3014 123.964 20.1301 117.793C13.9588 111.622 9.061 104.275 5.4366 95.7527C1.8122 87.2305 0 78.3001 0 68.9615C0 59.623 1.8122 50.6926 5.4366 42.1704C9.061 33.6481 13.9588 26.3014 20.1301 20.1301C26.3014 13.9588 33.6481 9.061 42.1704 5.4366C50.6926 1.8122 59.623 0 68.9615 0C78.3001 0 87.2305 1.8122 95.7527 5.4366C104.275 9.061 111.622 13.9588 117.793 20.1301C123.964 26.3014 128.862 33.6481 132.486 42.1704C136.111 50.6926 137.923 59.623 137.923 68.9615C137.923 83.3285 133.874 96.3568 125.776 108.046L159.376 141.645C161.792 144.062 163 147 163 150.462Z" fill="#555555"/>
</svg>
